<?xml version="1.0" standalone="no"?><!DOCTYPE svg PUBLIC "-//W3C//DTD SVG 1.1//EN" "http://www.w3.org/Graphics/SVG/1.1/DTD/svg11.dtd"><svg t="1740906143853" class="icon" viewBox="0 0 1024 1024" version="1.1" xmlns="http://www.w3.org/2000/svg" p-id="1680" xmlns:xlink="http://www.w3.org/1999/xlink" width="200" height="200"><path d="M512 285.226667a115.968 115.968 0 1 1 115.968-115.968A116.096 116.096 0 0 1 512 285.226667z m0-167.893334a51.968 51.968 0 1 0 51.968 51.968A52.010667 52.010667 0 0 0 512 117.333333z" p-id="1681" fill="#1296db"></path><path d="M512 970.624a115.968 115.968 0 1 1 115.968-115.968A116.096 116.096 0 0 1 512 970.624z m0-167.893333a51.968 51.968 0 1 0 51.968 51.968A52.010667 52.010667 0 0 0 512 802.730667z" p-id="1682" fill="#1296db"></path><path d="M169.301333 627.968A115.968 115.968 0 1 1 285.269333 512a116.096 116.096 0 0 1-115.968 115.968z m0-167.893333a51.968 51.968 0 1 0 51.968 51.968 52.010667 52.010667 0 0 0-51.968-52.010667z" p-id="1683" fill="#1296db"></path><path d="M854.912 627.968A115.968 115.968 0 1 1 970.88 512a116.096 116.096 0 0 1-115.968 115.968z m0-167.893333a51.968 51.968 0 1 0 51.968 51.968 52.010667 52.010667 0 0 0-51.968-52.010667z" p-id="1684" fill="#1296db"></path><path d="M808.96 365.056a31.957333 31.957333 0 0 1-27.093333-14.890667 349.568 349.568 0 0 0-107.946667-107.946666 32 32 0 0 1 34.133333-54.101334 413.866667 413.866667 0 0 1 128 128 32 32 0 0 1-27.008 49.109334z" p-id="1685" fill="#1296db"></path><path d="M690.986667 840.832a32 32 0 0 1-17.066667-59.050667 349.610667 349.610667 0 0 0 107.946667-107.946666 32 32 0 0 1 54.101333 34.133333 413.866667 413.866667 0 0 1-128 128 31.872 31.872 0 0 1-16.981333 4.864z" p-id="1686" fill="#1296db"></path><path d="M333.013333 840.832a31.829333 31.829333 0 0 1-17.066666-4.949333 413.866667 413.866667 0 0 1-128-128 32 32 0 0 1 54.101333-34.133334 349.610667 349.610667 0 0 0 107.946667 107.946667 32 32 0 0 1-17.066667 59.050667z" p-id="1687" fill="#1296db"></path><path d="M215.125333 365.056a32 32 0 0 1-27.008-49.109333 413.866667 413.866667 0 0 1 128-128 32 32 0 0 1 34.133334 54.101333 349.568 349.568 0 0 0-107.946667 107.946667 32 32 0 0 1-27.178667 15.061333z" p-id="1688" fill="#1296db"></path></svg>